<?xml version="1.0" standalone="no"?>
<!DOCTYPE svg PUBLIC "-//W3C//DTD SVG 20010904//EN"
 "http://www.w3.org/TR/2001/REC-SVG-20010904/DTD/svg10.dtd">
<svg version="1.0" xmlns="http://www.w3.org/2000/svg"
 width="2580.000000pt" height="2580.000000pt" viewBox="0 0 2580.000000 2580.000000"
 preserveAspectRatio="xMidYMid meet">
<metadata>
Created by potrace 1.16, written by Peter Selinger 2001-2019
</metadata>
<g transform="translate(0.000000,2580.000000) scale(0.100000,-0.100000)"
fill="#0000ff" stroke="none">
<path d="M5460 22573 c-218 -10 -507 -81 -764 -187 -458 -190 -865 -542 -1125
-974 -164 -272 -264 -550 -328 -907 -17 -93 -18 -236 -21 -2166 -3 -2064 -3
-2067 18 -2072 20 -5 20 -11 20 -1115 l0 -1109 41 -84 c215 -445 437 -736 799
-1049 458 -396 1145 -786 1875 -1065 975 -372 2000 -618 3190 -764 398 -49
512 -60 1080 -101 217 -16 729 -30 1113 -30 234 0 362 -4 362 -10 0 -7 195
-10 564 -10 502 0 566 -2 580 -16 15 -14 79 -15 619 -13 600 4 602 4 665 -19
100 -35 161 -72 231 -142 71 -71 108 -131 144 -232 l22 -63 3 -1582 c2 -1275
0 -1582 -10 -1578 -10 4 -13 -36 -14 -187 0 -212 -9 -258 -65 -371 -40 -79
-157 -196 -234 -234 -133 -67 -54 -63 -1335 -63 -1136 0 -1164 0 -1230 20
-120 36 -210 97 -289 196 -47 60 -67 98 -92 176 -18 57 -19 95 -19 597 0 576
-6 675 -46 791 -51 148 -105 231 -201 311 -43 35 -159 99 -180 99 -4 0 -45 18
-89 41 -72 36 -91 41 -170 45 -366 18 -510 27 -729 44 -1060 84 -2076 260
-2969 516 -217 62 -464 139 -516 159 -19 8 -93 34 -165 59 -466 161 -973 385
-1295 572 -36 20 -90 51 -121 68 -143 79 -449 286 -604 409 -132 105 -342 295
-418 379 -36 40 -80 89 -98 108 -44 50 -166 212 -222 298 -47 72 -161 284
-188 352 -12 30 -14 -384 -17 -3065 -2 -2294 0 -3129 9 -3210 45 -429 201
-837 456 -1187 107 -147 322 -371 448 -466 265 -199 468 -305 800 -418 28 -9
66 -20 85 -25 19 -4 53 -12 75 -18 22 -6 99 -21 170 -33 l130 -23 7500 0
c7232 0 7504 1 7605 18 114 20 346 75 370 88 8 4 53 20 100 35 99 31 312 131
387 180 28 19 54 34 57 34 19 0 260 176 341 249 173 156 352 372 468 564 53
90 177 337 177 354 0 7 44 129 60 168 5 11 14 45 21 75 6 30 15 66 20 80 10
33 25 104 46 220 15 86 17 243 20 1725 2 897 0 2323 -4 3170 l-8 1541 -53 91
c-29 51 -75 136 -101 190 -153 311 -373 586 -696 870 -142 125 -414 326 -576
428 -93 57 -291 175 -295 175 -2 0 -27 14 -55 31 -62 36 -329 172 -444 225
-538 248 -1219 482 -1905 654 -766 192 -1679 337 -2550 404 -559 43 -866 55
-1422 56 -252 0 -388 4 -388 10 0 7 -195 10 -564 10 -489 0 -565 2 -576 15
-11 13 -92 15 -614 15 -523 0 -609 2 -652 16 -51 16 -136 58 -163 80 -9 7 -31
25 -49 40 -47 38 -127 156 -152 222 -13 35 -25 101 -31 172 -6 70 -9 768 -7
1795 l3 1680 23 66 c31 93 63 146 133 222 73 81 151 129 249 156 73 21 93 21
1235 21 l1160 0 75 -23 c181 -56 329 -207 374 -383 14 -53 16 -141 16 -596 0
-313 4 -569 11 -618 12 -103 59 -245 106 -322 63 -106 182 -205 284 -238 24
-8 71 -28 104 -46 76 -40 144 -50 440 -64 355 -16 785 -53 1185 -101 245 -29
556 -75 815 -119 180 -31 527 -98 635 -124 36 -8 108 -24 160 -36 229 -51 687
-174 900 -242 52 -16 129 -41 170 -53 165 -52 612 -214 714 -259 17 -8 60 -27
96 -42 425 -178 851 -406 1185 -632 95 -65 351 -254 365 -271 3 -3 41 -37 85
-75 120 -104 226 -210 317 -316 45 -52 85 -97 88 -100 19 -17 127 -171 181
-260 54 -88 130 -235 177 -340 8 -18 10 835 9 3150 l-3 3175 -21 115 c-28 145
-74 324 -109 415 -14 39 -29 81 -34 95 -14 44 -156 327 -171 340 -3 3 -20 30
-38 60 -70 121 -255 349 -351 434 -19 17 -62 56 -95 87 -225 207 -611 416
-942 510 -83 23 -101 28 -148 38 -27 6 -93 19 -145 28 -90 17 -496 18 -7540
18 -4095 1 -7474 0 -7510 -2z"/>
</g>
</svg>
